<svg width="620" height="464" viewBox="0 0 620 464" fill="none" xmlns="http://www.w3.org/2000/svg">
<rect width="620" height="464" fill="#1E1E1E"/>
<rect width="620" height="464" fill="white"/>
<path d="M176.32 251V223H188.44C190.947 223 193.107 223.413 194.92 224.24C196.733 225.04 198.133 226.2 199.12 227.72C200.107 229.24 200.6 231.053 200.6 233.16C200.6 235.24 200.107 237.04 199.12 238.56C198.133 240.053 196.733 241.2 194.92 242C193.107 242.8 190.947 243.2 188.44 243.2H179.92L182.8 240.36V251H176.32ZM194.12 251L187.12 240.84H194.04L201.12 251H194.12ZM182.8 241.08L179.92 238.04H188.08C190.08 238.04 191.573 237.613 192.56 236.76C193.547 235.88 194.04 234.68 194.04 233.16C194.04 231.613 193.547 230.413 192.56 229.56C191.573 228.707 190.08 228.28 188.08 228.28H179.92L182.8 225.2V241.08ZM215.974 251.32C213.521 251.32 211.361 250.84 209.494 249.88C207.654 248.92 206.227 247.613 205.214 245.96C204.201 244.28 203.694 242.373 203.694 240.24C203.694 238.08 204.187 236.173 205.174 234.52C206.187 232.84 207.561 231.533 209.294 230.6C211.027 229.64 212.987 229.16 215.174 229.16C217.281 229.16 219.174 229.613 220.854 230.52C222.561 231.4 223.907 232.68 224.894 234.36C225.881 236.013 226.374 238 226.374 240.32C226.374 240.56 226.361 240.84 226.334 241.16C226.307 241.453 226.281 241.733 226.254 242H208.774V238.36H222.974L220.574 239.44C220.574 238.32 220.347 237.347 219.894 236.52C219.441 235.693 218.814 235.053 218.014 234.6C217.214 234.12 216.281 233.88 215.214 233.88C214.147 233.88 213.201 234.12 212.374 234.6C211.574 235.053 210.947 235.707 210.494 236.56C210.041 237.387 209.814 238.373 209.814 239.52V240.48C209.814 241.653 210.067 242.693 210.574 243.6C211.107 244.48 211.841 245.16 212.774 245.64C213.734 246.093 214.854 246.32 216.134 246.32C217.281 246.32 218.281 246.147 219.134 245.8C220.014 245.453 220.814 244.933 221.534 244.24L224.854 247.84C223.867 248.96 222.627 249.827 221.134 250.44C219.641 251.027 217.921 251.32 215.974 251.32ZM237.768 251.32C235.928 251.32 234.155 251.107 232.448 250.68C230.768 250.227 229.435 249.667 228.448 249L230.528 244.52C231.515 245.133 232.675 245.64 234.008 246.04C235.368 246.413 236.702 246.6 238.008 246.6C239.448 246.6 240.462 246.427 241.048 246.08C241.662 245.733 241.968 245.253 241.968 244.64C241.968 244.133 241.728 243.76 241.248 243.52C240.795 243.253 240.182 243.053 239.408 242.92C238.635 242.787 237.782 242.653 236.848 242.52C235.942 242.387 235.022 242.213 234.088 242C233.155 241.76 232.302 241.413 231.528 240.96C230.755 240.507 230.128 239.893 229.648 239.12C229.195 238.347 228.968 237.347 228.968 236.12C228.968 234.76 229.355 233.56 230.128 232.52C230.928 231.48 232.075 230.667 233.568 230.08C235.062 229.467 236.848 229.16 238.928 229.16C240.395 229.16 241.888 229.32 243.408 229.64C244.928 229.96 246.195 230.427 247.208 231.04L245.128 235.48C244.088 234.867 243.035 234.453 241.968 234.24C240.928 234 239.915 233.88 238.928 233.88C237.542 233.88 236.528 234.067 235.888 234.44C235.248 234.813 234.928 235.293 234.928 235.88C234.928 236.413 235.155 236.813 235.608 237.08C236.088 237.347 236.715 237.56 237.488 237.72C238.262 237.88 239.102 238.027 240.008 238.16C240.942 238.267 241.875 238.44 242.808 238.68C243.742 238.92 244.582 239.267 245.328 239.72C246.102 240.147 246.728 240.747 247.208 241.52C247.688 242.267 247.928 243.253 247.928 244.48C247.928 245.813 247.528 247 246.728 248.04C245.928 249.053 244.768 249.853 243.248 250.44C241.755 251.027 239.928 251.32 237.768 251.32ZM262.458 251.32C260.005 251.32 257.845 250.84 255.978 249.88C254.138 248.92 252.712 247.613 251.698 245.96C250.685 244.28 250.178 242.373 250.178 240.24C250.178 238.08 250.672 236.173 251.658 234.52C252.672 232.84 254.045 231.533 255.778 230.6C257.512 229.64 259.472 229.16 261.658 229.16C263.765 229.16 265.658 229.613 267.338 230.52C269.045 231.4 270.392 232.68 271.378 234.36C272.365 236.013 272.858 238 272.858 240.32C272.858 240.56 272.845 240.84 272.818 241.16C272.792 241.453 272.765 241.733 272.738 242H255.258V238.36H269.458L267.058 239.44C267.058 238.32 266.832 237.347 266.378 236.52C265.925 235.693 265.298 235.053 264.498 234.6C263.698 234.12 262.765 233.88 261.698 233.88C260.632 233.88 259.685 234.12 258.858 234.6C258.058 235.053 257.432 235.707 256.978 236.56C256.525 237.387 256.298 238.373 256.298 239.52V240.48C256.298 241.653 256.552 242.693 257.058 243.6C257.592 244.48 258.325 245.16 259.258 245.64C260.218 246.093 261.338 246.32 262.618 246.32C263.765 246.32 264.765 246.147 265.618 245.8C266.498 245.453 267.298 244.933 268.018 244.24L271.338 247.84C270.352 248.96 269.112 249.827 267.618 250.44C266.125 251.027 264.405 251.32 262.458 251.32ZM277.013 251V229.48H282.973V235.56L282.133 233.8C282.773 232.28 283.799 231.133 285.213 230.36C286.626 229.56 288.346 229.16 290.373 229.16V234.92C290.106 234.893 289.866 234.88 289.653 234.88C289.439 234.853 289.213 234.84 288.973 234.84C287.266 234.84 285.879 235.333 284.813 236.32C283.773 237.28 283.253 238.787 283.253 240.84V251H277.013ZM300.665 251L291.625 229.48H298.065L305.585 248H302.385L310.185 229.48H316.185L307.105 251H300.665ZM331.228 251V246.8L330.828 245.88V238.36C330.828 237.027 330.415 235.987 329.588 235.24C328.788 234.493 327.548 234.12 325.868 234.12C324.722 234.12 323.588 234.307 322.468 234.68C321.375 235.027 320.442 235.507 319.668 236.12L317.428 231.76C318.602 230.933 320.015 230.293 321.668 229.84C323.322 229.387 325.002 229.16 326.708 229.16C329.988 229.16 332.535 229.933 334.348 231.48C336.162 233.027 337.068 235.44 337.068 238.72V251H331.228ZM324.668 251.32C322.988 251.32 321.548 251.04 320.348 250.48C319.148 249.893 318.228 249.107 317.588 248.12C316.948 247.133 316.628 246.027 316.628 244.8C316.628 243.52 316.935 242.4 317.548 241.44C318.188 240.48 319.188 239.733 320.548 239.2C321.908 238.64 323.682 238.36 325.868 238.36H331.588V242H326.548C325.082 242 324.068 242.24 323.508 242.72C322.975 243.2 322.708 243.8 322.708 244.52C322.708 245.32 323.015 245.96 323.628 246.44C324.268 246.893 325.135 247.12 326.228 247.12C327.268 247.12 328.202 246.88 329.028 246.4C329.855 245.893 330.455 245.16 330.828 244.2L331.788 247.08C331.335 248.467 330.508 249.52 329.308 250.24C328.108 250.96 326.562 251.32 324.668 251.32ZM349.956 251.32C348.116 251.32 346.343 251.107 344.636 250.68C342.956 250.227 341.623 249.667 340.636 249L342.716 244.52C343.703 245.133 344.863 245.64 346.196 246.04C347.556 246.413 348.889 246.6 350.196 246.6C351.636 246.6 352.649 246.427 353.236 246.08C353.849 245.733 354.156 245.253 354.156 244.64C354.156 244.133 353.916 243.76 353.436 243.52C352.983 243.253 352.369 243.053 351.596 242.92C350.823 242.787 349.969 242.653 349.036 242.52C348.129 242.387 347.209 242.213 346.276 242C345.343 241.76 344.489 241.413 343.716 240.96C342.943 240.507 342.316 239.893 341.836 239.12C341.383 238.347 341.156 237.347 341.156 236.12C341.156 234.76 341.543 233.56 342.316 232.52C343.116 231.48 344.263 230.667 345.756 230.08C347.249 229.467 349.036 229.16 351.116 229.16C352.583 229.16 354.076 229.32 355.596 229.64C357.116 229.96 358.383 230.427 359.396 231.04L357.316 235.48C356.276 234.867 355.223 234.453 354.156 234.24C353.116 234 352.103 233.88 351.116 233.88C349.729 233.88 348.716 234.067 348.076 234.44C347.436 234.813 347.116 235.293 347.116 235.88C347.116 236.413 347.343 236.813 347.796 237.08C348.276 237.347 348.903 237.56 349.676 237.72C350.449 237.88 351.289 238.027 352.196 238.16C353.129 238.267 354.063 238.44 354.996 238.68C355.929 238.92 356.769 239.267 357.516 239.72C358.289 240.147 358.916 240.747 359.396 241.52C359.876 242.267 360.116 243.253 360.116 244.48C360.116 245.813 359.716 247 358.916 248.04C358.116 249.053 356.956 249.853 355.436 250.44C353.943 251.027 352.116 251.32 349.956 251.32ZM363.966 251V229.48H370.206V251H363.966ZM367.086 226.48C365.939 226.48 365.006 226.147 364.286 225.48C363.566 224.813 363.206 223.987 363.206 223C363.206 222.013 363.566 221.187 364.286 220.52C365.006 219.853 365.939 219.52 367.086 219.52C368.233 219.52 369.166 219.84 369.886 220.48C370.606 221.093 370.966 221.893 370.966 222.88C370.966 223.92 370.606 224.787 369.886 225.48C369.193 226.147 368.259 226.48 367.086 226.48ZM378.357 251.32C377.291 251.32 376.371 250.96 375.597 250.24C374.851 249.493 374.477 248.547 374.477 247.4C374.477 246.253 374.851 245.333 375.597 244.64C376.371 243.92 377.291 243.56 378.357 243.56C379.451 243.56 380.371 243.92 381.117 244.64C381.864 245.333 382.237 246.253 382.237 247.4C382.237 248.547 381.864 249.493 381.117 250.24C380.371 250.96 379.451 251.32 378.357 251.32Z" fill="#3749EA"/>
<path d="M394.086 251.15C392.769 251.15 391.544 250.933 390.411 250.5C389.294 250.05 388.319 249.425 387.486 248.625C386.669 247.808 386.028 246.867 385.561 245.8C385.111 244.717 384.886 243.533 384.886 242.25C384.886 240.967 385.111 239.792 385.561 238.725C386.028 237.642 386.669 236.7 387.486 235.9C388.319 235.083 389.294 234.458 390.411 234.025C391.528 233.575 392.753 233.35 394.086 233.35C395.403 233.35 396.619 233.575 397.736 234.025C398.853 234.458 399.819 235.075 400.636 235.875C401.469 236.675 402.111 237.617 402.561 238.7C403.028 239.783 403.261 240.967 403.261 242.25C403.261 243.533 403.028 244.717 402.561 245.8C402.111 246.883 401.469 247.825 400.636 248.625C399.819 249.425 398.853 250.05 397.736 250.5C396.619 250.933 395.403 251.15 394.086 251.15ZM394.086 249.5C395.136 249.5 396.103 249.325 396.986 248.975C397.886 248.608 398.661 248.1 399.311 247.45C399.978 246.783 400.494 246.017 400.861 245.15C401.228 244.267 401.411 243.3 401.411 242.25C401.411 241.2 401.228 240.242 400.861 239.375C400.494 238.492 399.978 237.725 399.311 237.075C398.661 236.408 397.886 235.9 396.986 235.55C396.103 235.183 395.136 235 394.086 235C393.036 235 392.061 235.183 391.161 235.55C390.261 235.9 389.478 236.408 388.811 237.075C388.161 237.725 387.644 238.492 387.261 239.375C386.894 240.242 386.711 241.2 386.711 242.25C386.711 243.283 386.894 244.242 387.261 245.125C387.644 246.008 388.161 246.783 388.811 247.45C389.478 248.1 390.261 248.608 391.161 248.975C392.061 249.325 393.036 249.5 394.086 249.5ZM413.733 237.75C414.799 237.75 415.733 237.958 416.533 238.375C417.349 238.775 417.983 239.392 418.433 240.225C418.899 241.058 419.133 242.108 419.133 243.375V251H417.358V243.55C417.358 242.167 417.008 241.125 416.308 240.425C415.624 239.708 414.658 239.35 413.408 239.35C412.474 239.35 411.658 239.542 410.958 239.925C410.274 240.292 409.741 240.833 409.358 241.55C408.991 242.25 408.808 243.1 408.808 244.1V251H407.033V237.875H408.733V241.475L408.458 240.8C408.874 239.85 409.541 239.108 410.458 238.575C411.374 238.025 412.466 237.75 413.733 237.75Z" fill="#62AF00"/>
</svg>
